<?xml version="1.0" encoding="UTF-8" standalone="no"?>
<svg viewBox="0 0 50 50"
 xmlns="http://www.w3.org/2000/svg" xmlns:xlink="http://www.w3.org/1999/xlink"  version="1.2" baseProfile="tiny">
<title>Qt SVG Document</title>
<desc>Generated with Qt</desc>
<defs>
</defs>
<g fill="none" stroke="black" stroke-width="1" fill-rule="evenodd" stroke-linecap="square" stroke-linejoin="bevel" >

<g fill="#000000" fill-opacity="1" stroke="none" transform="matrix(2.27273,0,0,2.27273,-52.2727,2.27273e-06)"
font-family="Open Sans" font-size="10" font-weight="400" font-style="normal" 
opacity="0.00100002" >
<rect x="23" y="-4.76837e-07" width="22" height="22"/>
</g>

<g fill="#e0e0e0" fill-opacity="1" stroke="none" transform="matrix(2.27273,0,0,2.27273,-52.2727,2.27273e-06)"
font-family="Open Sans" font-size="10" font-weight="400" font-style="normal" 
>
<circle cx="34" cy="11" r="11"/>
</g>

<g fill="#333333" fill-opacity="1" stroke="none" transform="matrix(2.27273,0,0,2.27273,-52.2727,2.27273e-06)"
font-family="Open Sans" font-size="10" font-weight="400" font-style="normal" 
>
<path vector-effect="none" fill-rule="nonzero" d="M31,7 C30.4477,7 30,7.44771 30,8 C29.9985,8.2658 30.1028,8.52128 30.29,8.71 L32.59,11 L30.29,13.29 C30.1028,13.4787 29.9985,13.7342 30,14 C30,14.5523 30.4477,15 31,15 C31.2658,15.0015 31.5213,14.8972 31.71,14.71 L34,12.41 L36.28,14.7 C36.4695,14.8933 36.7293,15.0016 37,15 C37.5523,15 38,14.5523 38,14 C38.0015,13.7342 37.8972,13.4787 37.71,13.29 L35.41,11 L37.7,8.72 C37.8933,8.5305 38.0016,8.27071 38,8 C38,7.44771 37.5523,7 37,7 C36.7342,6.99846 36.4787,7.10281 36.29,7.29 L34,9.59 L31.72,7.3 C31.7167,7.29664 31.7134,7.29331 31.71,7.29 C31.5213,7.10281 31.2658,6.99846 31,7 "/>
</g>

<g fill="none" stroke="#000000" stroke-opacity="1" stroke-width="1" stroke-linecap="square" stroke-linejoin="bevel" transform="matrix(1,0,0,1,0,0)"
font-family="Open Sans" font-size="10" font-weight="400" font-style="normal" 
>
</g>
</g>
</svg>
