<?xml version="1.0" encoding="UTF-8" standalone="no"?>
<svg viewBox="0 0 50 50"
 xmlns="http://www.w3.org/2000/svg" xmlns:xlink="http://www.w3.org/1999/xlink"  version="1.2" baseProfile="tiny">
<title>Qt SVG Document</title>
<desc>Generated with Qt</desc>
<defs>
</defs>
<g fill="none" stroke="black" stroke-width="1" fill-rule="evenodd" stroke-linecap="square" stroke-linejoin="bevel" >

<g fill="#000000" fill-opacity="1" stroke="none" transform="matrix(2.27273,0,0,2.27273,-52.2727,0)"
font-family="Open Sans" font-size="10" font-weight="400" font-style="normal" 
opacity="0.00100002" >
<rect x="23" y="0" width="22" height="22"/>
</g>

<g fill="#ffffff" fill-opacity="1" stroke="none" transform="matrix(2.27273,0,0,2.27273,-52.2727,0)"
font-family="Open Sans" font-size="10" font-weight="400" font-style="normal" 
opacity="0.2" >
<circle cx="34" cy="11" r="11"/>
</g>

<g fill="#ffffff" fill-opacity="1" stroke="none" transform="matrix(2.27273,0,0,2.27273,9.09086,6.81818)"
font-family="Open Sans" font-size="10" font-weight="400" font-style="normal" 
>
<path vector-effect="none" fill-rule="nonzero" d="M7,3 C6.446,3 6,3.446 6,4 L10.4727,4 C10.7648,4 11,4.2352 11,4.52734 L11,9.00004 C11.554,9.00004 12,8.55404 12,8.00004 L12,4.00004 C12,3.44604 11.554,3.00004 11,3.00004 L7,3"/>
</g>

<g fill="#ffffff" fill-opacity="1" stroke="none" transform="matrix(2.27273,0,0,2.27273,9.09086,6.81818)"
font-family="Open Sans" font-size="10" font-weight="400" font-style="normal" 
>
<path vector-effect="none" fill-rule="nonzero" d="M3,5 C2.446,5 2,5.446 2,6 L2,12 C2,12.554 2.446,13 3,13 L9,13 C9.554,13 10,12.554 10,12 L10,6 C10,5.446 9.554,5 9,5 L3,5 M4.5273,7 L7.4726,7 C7.76474,7 7.99994,7.2352 7.99994,7.52734 L7.99994,10.4726 C7.99994,10.7648 7.76474,11 7.4726,11 L4.5273,11 C4.23516,11 3.99996,10.7648 3.99996,10.4726 L3.99996,7.52734 C3.99996,7.2352 4.23516,7 4.5273,7 "/>
</g>

<g fill="none" stroke="#000000" stroke-opacity="1" stroke-width="1" stroke-linecap="square" stroke-linejoin="bevel" transform="matrix(1,0,0,1,0,0)"
font-family="Open Sans" font-size="10" font-weight="400" font-style="normal" 
>
</g>
</g>
</svg>
