<?xml version="1.0" encoding="UTF-8" standalone="no"?>
<svg viewBox="0 0 50 50"
 xmlns="http://www.w3.org/2000/svg" xmlns:xlink="http://www.w3.org/1999/xlink"  version="1.2" baseProfile="tiny">
<title>Qt SVG Document</title>
<desc>Generated with Qt</desc>
<defs>
</defs>
<g fill="none" stroke="black" stroke-width="1" fill-rule="evenodd" stroke-linecap="square" stroke-linejoin="bevel" >

<g fill="#000000" fill-opacity="1" stroke="none" transform="matrix(2.27273,0,0,2.27273,0,0)"
font-family="Open Sans" font-size="10" font-weight="400" font-style="normal" 
opacity="0.00100002" >
<rect x="0" y="0" width="22" height="22"/>
</g>

<g fill="#ffffff" fill-opacity="1" stroke="none" transform="matrix(2.27273,0,0,2.27273,0,0)"
font-family="Open Sans" font-size="10" font-weight="400" font-style="normal" 
opacity="0.75" >
<path vector-effect="none" fill-rule="nonzero" d="M8,7 C7.446,7 7,7.446 7,8 L7,14 C7,14.554 7.446,15 8,15 L14,15 C14.554,15 15,14.554 15,14 L15,8 C15,7.446 14.554,7 14,7 L8,7 M9.5,9 L12.5,9 C12.777,9 13,9.223 13,9.5 L13,12.5 C13,12.777 12.777,13 12.5,13 L9.5,13 C9.223,13 9,12.777 9,12.5 L9,9.5 C9,9.223 9.223,9 9.5,9 "/>
</g>

<g fill="none" stroke="#000000" stroke-opacity="1" stroke-width="1" stroke-linecap="square" stroke-linejoin="bevel" transform="matrix(1,0,0,1,0,0)"
font-family="Open Sans" font-size="10" font-weight="400" font-style="normal" 
>
</g>
</g>
</svg>
