<?xml version="1.0" encoding="UTF-8" standalone="no"?>
<svg viewBox="0 0 50 50"
 xmlns="http://www.w3.org/2000/svg" xmlns:xlink="http://www.w3.org/1999/xlink"  version="1.2" baseProfile="tiny">
<title>Qt SVG Document</title>
<desc>Generated with Qt</desc>
<defs>
</defs>
<g fill="none" stroke="black" stroke-width="1" fill-rule="evenodd" stroke-linecap="square" stroke-linejoin="bevel" >

<g fill="#000000" fill-opacity="1" stroke="none" transform="matrix(2.27273,0,0,2.27273,-52.2727,0)"
font-family="Open Sans" font-size="10" font-weight="400" font-style="normal" 
opacity="0.00100002" >
<rect x="23" y="0" width="22" height="22"/>
</g>

<g fill="#ffffff" fill-opacity="1" stroke="none" transform="matrix(2.27273,0,0,2.27273,-52.2727,0)"
font-family="Open Sans" font-size="10" font-weight="400" font-style="normal" 
opacity="0.2" >
<circle cx="34" cy="11" r="11"/>
</g>

<g fill="#ffffff" fill-opacity="1" stroke="none" transform="matrix(2.27273,0,0,2.27273,-52.2727,0)"
font-family="Open Sans" font-size="10" font-weight="400" font-style="normal" 
>
<path vector-effect="none" fill-rule="nonzero" d="M31,7 C30.446,7 30,7.446 30,8 L30,14 C30,14.554 30.446,15 31,15 L37,15 C37.554,15 38,14.554 38,14 L38,8 C38,7.446 37.554,7 37,7 L31,7 M32.5,9 L35.5,9 C35.777,9 36,9.223 36,9.5 L36,12.5 C36,12.777 35.777,13 35.5,13 L32.5,13 C32.223,13 32,12.777 32,12.5 L32,9.5 C32,9.223 32.223,9 32.5,9 "/>
</g>

<g fill="none" stroke="#000000" stroke-opacity="1" stroke-width="1" stroke-linecap="square" stroke-linejoin="bevel" transform="matrix(1,0,0,1,0,0)"
font-family="Open Sans" font-size="10" font-weight="400" font-style="normal" 
>
</g>
</g>
</svg>
